<svg aria-hidden="true" xmlns="http://www.w3.org/2000/svg" x="0px" y="0px" viewBox="0 0 1225 562" class="tcl-carousel-v2__range-path" preserveAspectRatio="xMidYMid slice" xml:space="preserve">
        <path d="m653.66669,102.33334c-0.6286,0.62856 -1.21088,0.98933 -1.88892,1.33333c-0.70599,0.35819 -1.04083,0.71072 -1.44446,1.27644c-0.50494,0.70773 -0.67786,1.49474 -1,2.05689c-0.34552,0.60295 -0.53741,1.32587 -0.88885,2c-0.36322,0.69669 0.20837,1.67295 -0.11115,2.55556c-0.29541,0.81596 -0.77118,1.44169 -1.09821,2.14622c-0.35962,0.77477 -0.72778,1.43785 -1.09113,2.15511c-0.39502,0.77986 -0.78534,1.55544 -1.18207,2.27944c-0.4389,0.80093 -0.6286,1.58723 -0.6286,2.48767c0,0.85245 -0.35211,1.61457 -0.66663,2.376c-0.31421,0.76063 -0.32574,1.6066 -0.66681,2.50478c-0.2832,0.74576 -0.4024,1.1739 0.00012,1.73033c0.52875,0.73083 0.41864,1.64577 0.66669,2.54266c0.23004,0.8318 0.66663,1.50578 0.66663,2.44446c0,0.88889 0.49591,1.40271 0.66669,2.1671c0.19653,0.87965 0,1.75378 0,2.66667c0,0.87733 0,1.75378 0,2.67734c0,0.86667 0,1.73332 0,2.71111c0,0.78711 0,1.724 0,2.56944c0,0.91766 0,1.82422 0,2.70879c0,0.89421 0,1.75467 0,2.66666c0,0.87022 0.00378,1.75468 0,2.67734c-0.0036,0.86668 -0.44427,1.64871 -0.66669,2.51912c-0.20483,0.80161 -0.62921,1.59903 -1.14398,2.07999c-0.62463,0.58362 -1.24915,1.08641 -1.8421,1.68146c-0.62976,0.63202 -1.16095,1.16165 -1.81299,1.78522c-0.66144,0.63254 -1.16125,1.24292 -1.89966,1.89966c-0.66754,0.59372 -1.33704,1.06538 -1.9679,1.63457c-0.62927,0.56772 -1.09821,1.03818 -1.66669,1.66666c-0.57135,0.63164 -1.34656,1.01491 -2.09875,1.53334c-0.67841,0.46756 -1.03619,1.40103 -1.80304,1.76189c-0.78174,0.36786 -1.34003,0.59082 -2.19641,0.70477c-0.85828,0.1142 -1.28491,0.66667 -2.20001,0.66667c-0.90179,0 -1.61554,0.21732 -2.41467,0.61067c-0.77075,0.37936 -1.6463,0.55 -2.42047,0.91199c-0.83295,0.38948 -1.64923,0.26929 -2.53333,0.58846c-0.82147,0.29657 -1.43677,0.81236 -2.18933,1.16533c-0.7807,0.36617 -1.61578,0.31154 -2.42041,0.66667c-0.79871,0.35251 -1.53583,0.49957 -2.34045,0.72356c-0.9043,0.25172 -1.90582,-0.34807 -2.70258,0.01389c-0.73059,0.33189 -1.492,0.41455 -2.2663,0.80034c-0.67548,0.33655 -1.34424,0.80901 -2.21423,1.12888c-0.81519,0.29973 -1.62891,0.15369 -2.45245,0.64256c-0.70215,0.41681 -1.47351,0.62112 -2.08087,0.98277c-0.55292,0.32924 -1.40424,0.57217 -1.76489,1.09822c-0.40076,0.58446 -1.10181,0.66667 -1.96844,0.66667c-0.93335,0 -1.79999,0 -2.69525,0c-0.90479,0 -1.55109,0.52272 -2.37054,0.66667c-0.86816,0.1525 -1.64648,0.23836 -2.53424,0.55556c-0.81366,0.29073 -1.73334,0.1096 -2.63153,0.1111c-0.8988,0.00151 -1.4754,0.59282 -2.30176,0.66667c-0.86407,0.07722 -1.58801,0.54915 -2.51111,0.66667c-0.78174,0.09952 -1.63043,0.49939 -2.42316,0.66666c-0.89722,0.18932 -1.59772,0.63821 -2.46576,0.66667c-0.86615,0.0284 -1.7373,0.34473 -2.54742,0.58566c-0.86334,0.25674 -1.81885,-0.03189 -2.64368,0.27034c-0.84637,0.31015 -1.58173,0.59366 -2.27856,0.90889c-0.86487,0.39124 -1.61163,0.65233 -2.43213,0.90178c-0.82581,0.25105 -1.44598,0.53255 -2.172,1.04977c-0.77277,0.55054 -1.19922,1.01314 -1.74042,1.617c-0.47021,0.52464 -1.24207,0.72322 -1.89056,1.37132c-0.62872,0.62834 -1.39221,1.0788 -1.948,1.62856c-0.58234,0.57602 -0.76349,1.44518 -1.35437,1.95023c-0.63232,0.54045 -0.48547,1.53358 -1.12921,2.145c-0.66284,0.62956 -1.28143,0.9843 -1.91345,1.59544c-0.59674,0.577 -0.888,1.44893 -1.50574,1.976c-0.66016,0.56328 -1.45068,0.77278 -2.14624,1.09822c-0.77417,0.36224 -1.61145,0.28995 -2.43158,0.66667c-0.84802,0.38956 -1.59827,0.84166 -2.45953,0.90178c-0.83752,0.05846 -1.45691,0.6631 -2.35107,0.66666c-0.87024,0.00346 -1.72272,0 -2.66669,0c-0.87024,0 -1.55444,0.18088 -2.20367,0.66678c-0.66333,0.49646 -1.59204,0.58881 -2.28088,1.09811c-0.71851,0.53123 -1.40759,1.07021 -2.00299,1.56544c-0.66058,0.54947 -1.08691,1.06764 -1.94446,1.33633c-0.73962,0.23174 -1.14343,1.07953 -1.81335,1.52266c-0.73718,0.48761 -1.27734,1.27736 -1.8772,1.87723c-0.63525,0.63524 -1.38019,1.18907 -1.85254,2.00011c-0.43207,0.74185 -0.96222,1.29576 -1.60449,1.87823c-0.63263,0.57376 -1.21271,1.09377 -1.9422,1.57777c-0.68512,0.45454 -1.01434,1.19746 -1.58398,1.82755c-0.56995,0.63039 -1.03174,1.34235 -1.63379,2c-0.60437,0.66019 -1.32098,1.16858 -1.98309,1.66368c-0.73151,0.54698 -1.27496,1.17807 -1.86755,1.70877c-0.6853,0.61374 -0.9986,1.37697 -1.5769,2.05511c-0.55261,0.64804 -0.6123,1.64189 -1.22223,2.33333c-0.54761,0.6208 -1.07199,1.29066 -1.66666,1.88889c-0.6647,0.66867 -1.25955,1.25957 -1.90479,1.90479c-0.62555,0.62555 -1.23489,1.36285 -1.95212,1.76277c-0.75336,0.42006 -1.47064,0.81165 -2.10043,1.31557c-0.66507,0.53215 -1.54913,0.79001 -2.18579,1.40622c-0.65689,0.6358 -1.08383,1.33636 -1.54755,1.96088c-0.54483,0.73375 -1.25937,1.29657 -1.89499,1.90211c-0.60153,0.57307 -1.31058,1.16603 -1.884,1.41434c-0.86432,0.37427 -1.6904,0.54047 -2.2139,1.07378c-0.59949,0.61076 -1.03952,1.48563 -1.71646,1.96889c-0.78012,0.55692 -1.21078,1.22281 -1.8381,1.86212c-0.6196,0.63145 -1.17572,1.29309 -1.72678,1.95888c-0.5582,0.67444 -1.17075,1.1996 -1.70178,1.80301c-0.56268,0.63936 -1.24561,1.1203 -2,1.65277c-0.69644,0.49155 -1.24969,1.07069 -1.92621,1.66368c-0.616,0.53995 -1.28021,1.0448 -1.94046,1.54721c-0.72873,0.5545 -1.43948,0.98834 -2.13333,1.48355c-0.74347,0.53061 -1.30469,1.24283 -2.04266,1.64566c-0.71228,0.38882 -1.38541,0.99109 -2.15732,1.39645c-0.83502,0.43851 -1.5672,0.83701 -2.24445,1.38846c-0.65988,0.53729 -1.5076,0.80371 -2.28891,1.23911c-0.75284,0.41949 -1.46469,0.94806 -2.26666,1.42755c-0.74481,0.44534 -1.1853,1.10391 -1.86667,1.75555c-0.65292,0.62445 -1.44446,1.0188 -2.13333,1.57779c-0.66562,0.5401 -0.8006,1.36206 -1.33633,1.85077c-0.53024,0.4837 -0.48267,1.19849 -0.853,1.98212c-0.33148,0.70139 -0.43665,1.55295 -0.76089,2.32266c-0.33475,0.79465 -0.77017,1.50177 -1.04889,2.21066c-0.33371,0.84872 -0.39655,1.62131 -0.64355,2.45599c-0.24603,0.83136 -0.45279,1.61734 -0.67676,2.39999c-0.24896,0.87003 -0.5098,1.61774 -0.67969,2.47644c-0.17926,0.90604 -0.40311,1.65659 -0.65366,2.52356c-0.24139,0.83536 -0.47037,1.68558 -0.68143,2.52356c-0.19418,0.77097 -0.66064,1.54312 -0.6658,2.47644c-0.00479,0.86667 -0.3783,1.64966 -0.66577,2.47644c-0.28079,0.80756 -0.66708,1.39111 -0.66754,2.32358c-0.0004,0.86667 0.1586,1.74707 -0.00089,2.66666c-0.14383,0.82938 -0.6658,1.54721 -0.6658,2.53333c0,0.86368 0.11432,1.68723 0,2.66669c-0.09531,0.81653 -0.64758,1.53268 -0.66666,2.39999c-0.02051,0.93311 -0.42093,1.72418 -0.64267,2.53333c-0.22913,0.83618 0.30319,1.86765 -0.0311,2.65955c-0.32977,0.78119 -0.31097,1.4884 -0.66257,2.37201c-0.32761,0.82333 -1.12811,1.24811 -1.33032,1.84579c-0.30994,0.91608 0.23651,1.85074 -0.03812,2.659c-0.30731,0.90448 -0.5618,1.66556 -0.86368,2.397c-0.3443,0.8342 -0.66565,1.57108 -1.01721,2.38577c-0.34171,0.7919 -0.52243,1.56168 -0.74768,2.37866c-0.21368,0.77509 -0.3653,1.70197 -0.60977,2.50311c-0.24988,0.81885 -0.21176,1.69998 -0.53421,2.39999c-0.39807,0.8642 0.07114,1.88153 -0.33688,2.71823c-0.33386,0.68463 -0.39838,1.5199 -0.70847,2.27112c-0.33212,0.80463 -0.39389,1.61353 -0.47745,2.54321c-0.07407,0.82404 -0.44501,1.62003 -0.70166,2.435c-0.26535,0.84262 -0.55206,1.75156 -0.63455,2.60001c-0.08664,0.89142 -0.63522,1.69684 -0.66367,2.57877c-0.02805,0.8692 0.08597,1.75247 -0.18933,2.64212c-0.22049,0.71249 -0.34686,1.61362 -0.50134,2.46045c-0.17035,0.93384 -0.56931,1.7326 -0.67776,2.62286c-0.09695,0.79584 -0.4313,1.72845 -0.57468,2.61536c-0.13876,0.85828 0.022,1.67542 -0.20444,2.69766c-0.16806,0.7587 -0.39517,1.68561 -0.51923,2.60001c-0.1124,0.82843 -0.40604,1.58557 -0.66656,2.44287c-0.24106,0.79315 -0.66666,1.57144 -0.66666,2.43811c0,0.89523 0.10477,1.83551 -0.23511,2.66669c-0.31519,0.77078 -0.43155,1.61066 -0.43155,2.53333c0,0.86667 0.11115,1.78082 -0.01389,2.60001c-0.14417,0.94437 -0.62436,1.6557 -0.6528,2.66666c-0.02182,0.7757 0,1.66666 0,2.55023c0,0.94498 -0.09293,1.74658 -0.43155,2.5831c-0.30927,0.76398 -0.15445,1.74878 -0.42444,2.57956c-0.28397,0.87381 -0.42157,1.68896 -0.47821,2.60977c-0.05566,0.90457 -0.45563,1.69623 -0.66669,2.53424c-0.19415,0.77097 -0.66428,1.57166 -0.66577,2.47644c-0.0015,0.90176 0,1.76489 0,2.66666c0,0.90176 0,1.76489 0,2.67377c0,0.89468 0.09509,1.70773 0.43155,2.46255c0.33438,0.75018 0.23511,1.64679 0.23511,2.5899c0,0.94043 -0.20514,1.83759 0.02402,2.67377c0.22174,0.80914 0.64267,1.66656 0.64267,2.55023c0,0.85278 0,1.77243 0,2.66666c0,0.86044 0,1.77335 0,2.66669c0,0.86044 0,1.77243 0,2.67377c0,0.84265 0.07681,1.80273 -0.23511,2.57599c-0.33765,0.83694 -0.37698,1.71155 -0.71512,2.4498c-0.33136,0.72345 -0.82761,1.25598 -1.48135,1.78177c-0.69461,0.55865 -0.88062,1.50677 -1.45731,2.12399c-0.56073,0.60016 -1.10876,1.30396 -1.63379,2.05511c-0.45572,0.65201 -1.26459,1.13922 -1.79678,1.72266c-0.55203,0.60513 -0.86603,1.34698 -1.34723,1.95023c-0.49277,0.61774 -0.97888,1.28848 -1.31943,2.06366c-0.36417,0.82889 -0.61514,1.5173 -1.01389,2.31946c-0.37689,0.75815 -0.47794,1.55289 -0.98312,2.29068c-0.49326,0.72034 -0.91766,1.48038 -1.26923,2.2951c-0.34171,0.7919 -0.40851,1.48074 -0.78577,2.11899c-0.46405,0.78513 -0.9071,1.2775 -1.28134,1.96188c-0.41074,0.75116 -0.11475,1.66458 -0.44543,2.43158c-0.34753,0.80612 -0.55789,1.56775 -0.84491,2.36755c-0.31046,0.86508 -0.37436,1.6145 -0.78043,2.40176c-0.43179,0.83713 -0.42197,1.6228 -0.62366,2.46579c-0.19604,0.81943 -0.56744,1.6958 -0.88791,2.49521c-0.32465,0.80984 -0.12231,1.7825 -0.43155,2.61591c-0.25455,0.68607 -0.5809,1.30933 -0.81421,2.10309c-0.2431,0.82706 -0.5842,1.70514 -0.85245,2.45245c-0.32758,0.91254 -0.66232,1.74323 -0.88889,2.66666c-0.18088,0.7373 0.17877,1.84756 -0.25867,2.58566c-0.33865,0.57138 -0.68756,1.25046 -1.1828,1.84592c-0.54944,0.66058 -0.85526,1.3978 -1.34344,2.2182c-0.45926,0.77182 -1.00485,1.25287 -1.3262,1.936c-0.32434,0.68951 -0.66669,1.13068 -0.66669,2.02402c0,0.87109 -0.4964,1.35211 -0.66666,2.168c-0.18158,0.87015 -0.36008,1.60797 -0.66367,2.32043c-0.35352,0.82965 -0.36588,1.39532 -0.81723,2.15411c-0.33957,0.57083 -0.87317,1.09235 -1.18576,1.69788c-0.39471,0.76456 0,1.77335 0,2.66669c0,0.86044 0.5527,1.2916 0.66666,2.14798c0.1142,0.85831 0.66666,1.33334 0.66666,2.15958c0,0.85864 0,1.82578 0,2.74222c0,0.90933 0,1.73334 0,2.68353c0,0.88489 0,1.74802 0,2.66367c0,0.88791 0.35867,1.92554 -0.18933,2.59592c-0.52756,0.64539 -1.29974,0.87131 -1.72964,1.39032c-0.44955,0.54276 -0.8606,1.02835 -1.41434,1.48077c-0.47772,0.39032 -1.25235,0.5191 -2.14755,0.5191c-0.85245,0 -1.83667,-0.23541 -2.63025,0.11111c-0.79529,0.34729 -1.50577,0.55557 -2.44443,0.55557l-0.88889,0l-0.83911,0" fill="none" stroke="var(--tds-color--blue30)" style="stroke-dasharray: 537.053, 537.053; stroke-dashoffset: 0;"></path>

      </svg>